<mxfile host="app.diagrams.net" agent="Mozilla/5.0 (X11; Linux x86_64) AppleWebKit/537.36 (KHTML, like Gecko) Chrome/134.0.0.0 Safari/537.36" version="26.1.0">
  <diagram name="Page-1" id="gEw9CzYS-eGWVvaA-9kZ">
    <mxGraphModel dx="1173" dy="1571" grid="1" gridSize="10" guides="1" tooltips="1" connect="1" arrows="1" fold="1" page="1" pageScale="1" pageWidth="850" pageHeight="1100" math="0" shadow="0">
      <root>
        <mxCell id="0" />
        <mxCell id="1" parent="0" />
        <mxCell id="leYTlglhbwK-Z7UrNze1-8" style="rounded=0;orthogonalLoop=1;jettySize=auto;html=1;exitX=1;exitY=0;exitDx=0;exitDy=0;entryX=0;entryY=1;entryDx=0;entryDy=0;" edge="1" parent="1" source="leYTlglhbwK-Z7UrNze1-1" target="leYTlglhbwK-Z7UrNze1-4">
          <mxGeometry relative="1" as="geometry" />
        </mxCell>
        <mxCell id="leYTlglhbwK-Z7UrNze1-13" style="edgeStyle=orthogonalEdgeStyle;rounded=0;orthogonalLoop=1;jettySize=auto;html=1;exitX=0.5;exitY=1;exitDx=0;exitDy=0;entryX=0;entryY=0.5;entryDx=0;entryDy=0;curved=1;" edge="1" parent="1" source="leYTlglhbwK-Z7UrNze1-1" target="leYTlglhbwK-Z7UrNze1-3">
          <mxGeometry relative="1" as="geometry" />
        </mxCell>
        <mxCell id="leYTlglhbwK-Z7UrNze1-1" value="" style="ellipse;whiteSpace=wrap;html=1;aspect=fixed;" vertex="1" parent="1">
          <mxGeometry x="161" y="40" width="80" height="80" as="geometry" />
        </mxCell>
        <mxCell id="leYTlglhbwK-Z7UrNze1-6" style="rounded=0;orthogonalLoop=1;jettySize=auto;html=1;exitX=0;exitY=1;exitDx=0;exitDy=0;entryX=1;entryY=0;entryDx=0;entryDy=0;" edge="1" parent="1" source="leYTlglhbwK-Z7UrNze1-2" target="leYTlglhbwK-Z7UrNze1-3">
          <mxGeometry relative="1" as="geometry" />
        </mxCell>
        <mxCell id="leYTlglhbwK-Z7UrNze1-11" style="edgeStyle=orthogonalEdgeStyle;rounded=0;orthogonalLoop=1;jettySize=auto;html=1;exitX=0.5;exitY=0;exitDx=0;exitDy=0;entryX=1;entryY=0.5;entryDx=0;entryDy=0;curved=1;" edge="1" parent="1" source="leYTlglhbwK-Z7UrNze1-2" target="leYTlglhbwK-Z7UrNze1-4">
          <mxGeometry relative="1" as="geometry" />
        </mxCell>
        <mxCell id="leYTlglhbwK-Z7UrNze1-2" value="" style="ellipse;whiteSpace=wrap;html=1;aspect=fixed;" vertex="1" parent="1">
          <mxGeometry x="561" y="41" width="80" height="80" as="geometry" />
        </mxCell>
        <mxCell id="leYTlglhbwK-Z7UrNze1-7" style="rounded=0;orthogonalLoop=1;jettySize=auto;html=1;exitX=0;exitY=0;exitDx=0;exitDy=0;entryX=1;entryY=1;entryDx=0;entryDy=0;" edge="1" parent="1" source="leYTlglhbwK-Z7UrNze1-3" target="leYTlglhbwK-Z7UrNze1-1">
          <mxGeometry relative="1" as="geometry" />
        </mxCell>
        <mxCell id="leYTlglhbwK-Z7UrNze1-9" style="edgeStyle=orthogonalEdgeStyle;rounded=0;orthogonalLoop=1;jettySize=auto;html=1;exitX=0.5;exitY=0;exitDx=0;exitDy=0;entryX=0.5;entryY=1;entryDx=0;entryDy=0;" edge="1" parent="1" source="leYTlglhbwK-Z7UrNze1-3" target="leYTlglhbwK-Z7UrNze1-4">
          <mxGeometry relative="1" as="geometry" />
        </mxCell>
        <mxCell id="leYTlglhbwK-Z7UrNze1-10" style="edgeStyle=orthogonalEdgeStyle;rounded=0;orthogonalLoop=1;jettySize=auto;html=1;exitX=1;exitY=0.5;exitDx=0;exitDy=0;entryX=0.5;entryY=1;entryDx=0;entryDy=0;curved=1;" edge="1" parent="1" source="leYTlglhbwK-Z7UrNze1-3" target="leYTlglhbwK-Z7UrNze1-2">
          <mxGeometry relative="1" as="geometry" />
        </mxCell>
        <mxCell id="leYTlglhbwK-Z7UrNze1-3" value="" style="ellipse;whiteSpace=wrap;html=1;aspect=fixed;" vertex="1" parent="1">
          <mxGeometry x="360" y="244" width="80" height="80" as="geometry" />
        </mxCell>
        <mxCell id="leYTlglhbwK-Z7UrNze1-5" style="rounded=0;orthogonalLoop=1;jettySize=auto;html=1;exitX=1;exitY=1;exitDx=0;exitDy=0;entryX=0;entryY=0;entryDx=0;entryDy=0;strokeColor=default;" edge="1" parent="1" source="leYTlglhbwK-Z7UrNze1-4" target="leYTlglhbwK-Z7UrNze1-2">
          <mxGeometry relative="1" as="geometry" />
        </mxCell>
        <mxCell id="leYTlglhbwK-Z7UrNze1-12" style="edgeStyle=orthogonalEdgeStyle;rounded=0;orthogonalLoop=1;jettySize=auto;html=1;exitX=0;exitY=0.5;exitDx=0;exitDy=0;entryX=0.5;entryY=0;entryDx=0;entryDy=0;curved=1;" edge="1" parent="1" source="leYTlglhbwK-Z7UrNze1-4" target="leYTlglhbwK-Z7UrNze1-1">
          <mxGeometry relative="1" as="geometry" />
        </mxCell>
        <mxCell id="leYTlglhbwK-Z7UrNze1-4" value="" style="ellipse;whiteSpace=wrap;html=1;aspect=fixed;" vertex="1" parent="1">
          <mxGeometry x="360" y="-161" width="80" height="80" as="geometry" />
        </mxCell>
        <mxCell id="leYTlglhbwK-Z7UrNze1-15" style="edgeStyle=orthogonalEdgeStyle;rounded=0;orthogonalLoop=1;jettySize=auto;html=1;exitX=0;exitY=0;exitDx=0;exitDy=0;entryX=0;entryY=1;entryDx=0;entryDy=0;curved=1;" edge="1" parent="1" source="leYTlglhbwK-Z7UrNze1-1" target="leYTlglhbwK-Z7UrNze1-1">
          <mxGeometry relative="1" as="geometry">
            <Array as="points">
              <mxPoint x="173" y="20" />
              <mxPoint x="80" y="20" />
              <mxPoint x="80" y="140" />
              <mxPoint x="173" y="140" />
            </Array>
          </mxGeometry>
        </mxCell>
        <mxCell id="leYTlglhbwK-Z7UrNze1-16" value="r" style="edgeStyle=orthogonalEdgeStyle;rounded=0;orthogonalLoop=1;jettySize=auto;html=1;exitX=0;exitY=0;exitDx=0;exitDy=0;entryX=0;entryY=1;entryDx=0;entryDy=0;curved=1;" edge="1" parent="1">
          <mxGeometry relative="1" as="geometry">
            <mxPoint x="632.9300000000001" y="108.93" as="sourcePoint" />
            <mxPoint x="632.9300000000001" y="52.93" as="targetPoint" />
            <Array as="points">
              <mxPoint x="633" y="141" />
              <mxPoint x="720" y="141" />
              <mxPoint x="720" y="21" />
              <mxPoint x="633" y="21" />
            </Array>
          </mxGeometry>
        </mxCell>
      </root>
    </mxGraphModel>
  </diagram>
</mxfile>
